<svg id="Layer_1" data-name="Layer 1" xmlns="http://www.w3.org/2000/svg" viewBox="0 0 272 49"><path d="M18.28,28.52H16.43L16,26.58a7.4,7.4,0,0,1-5.69,2.36c-6.32,0-8.79-3.68-8.79-7.89s2.62-7.89,8.71-7.89c4.54,0,7.45,2.3,7.78,5.24H14.61c-.56-2-2.45-2.89-4.48-2.89-3.87,0-5.35,2.36-5.35,5.65,0,4,2.55,5.44,5.19,5.44,3.2,0,4.66-1.47,5.17-3.94H10.91V20.32h7.37Z"/><path d="M20.49,21.05c0-4.2,2.47-7.89,8.79-7.89s8.79,3.69,8.79,7.89-2.47,7.89-8.79,7.89-8.79-3.68-8.79-7.89m14.32,0a5.15,5.15,0,0,0-5.53-5.54,5.15,5.15,0,0,0-5.52,5.54c0,3.29,2,5.55,5.52,5.55s5.53-2.26,5.53-5.55"/><path d="M40.29,13.58h8.06c5.86,0,7.3,3.35,7.3,7.62,0,3.22-1.46,7.33-6.55,7.33H40.29Zm3.14,12.6h4.42c2.26,0,4.66-.73,4.66-5.11,0-4.85-3.07-5.14-4.83-5.14H43.43Z"/><path d="M58.12,13.58h9.46c3.81,0,5,1.74,5,4.06a3.52,3.52,0,0,1-2.46,3.6v0c1.77.38,2.17,1.93,2.17,4a6.22,6.22,0,0,0,.63,3.2H69.57a5,5,0,0,1-.38-2.26c0-2.13-.29-3.64-2.59-3.64H61.26v5.9H58.12Zm8.56,6.7c1.74,0,2.68-.52,2.68-2.2s-1-2.15-2.68-2.15H61.26v4.35Z"/><polygon points="75.18 13.58 88.15 13.58 88.15 15.93 78.32 15.93 78.32 19.69 87.75 19.69 87.75 22.04 78.32 22.04 78.32 26.18 88.32 26.18 88.32 28.52 75.18 28.52 75.18 13.58"/><path d="M97.67,13.58h3.14V24c0,2.1-.9,4.94-5.56,4.94-5.72,0-5.78-3.6-5.78-5.79h3.14c0,1.55,0,3.45,2.59,3.45s2.47-2,2.47-3.47Z"/><path d="M111.11,13.58h3.14V22c0,2.07.08,4.58,4.16,4.58s4.19-2.51,4.19-4.58V13.58h3.14V22.1c0,2.47-.08,6.84-7.33,6.84s-7.3-4.37-7.3-6.84Z"/><path d="M128.67,13.58h9.46c3.81,0,5,1.74,5,4.06a3.52,3.52,0,0,1-2.47,3.6v0c1.78.38,2.18,1.93,2.18,4a6.22,6.22,0,0,0,.63,3.2h-3.39a5,5,0,0,1-.38-2.26c0-2.13-.29-3.64-2.6-3.64h-5.33v5.9h-3.14Zm8.56,6.7c1.73,0,2.68-.52,2.68-2.2s-1-2.15-2.68-2.15h-5.42v4.35Z"/><path d="M145.72,13.58h9.88c3.41,0,4.29,1.82,4.29,3.73a3,3,0,0,1-2,3.12,3.53,3.53,0,0,1,2.72,3.7c0,1.67-1,4.4-5.08,4.4h-9.78Zm3.14,6.07h5.86c.88,0,2-.21,2-1.9,0-1.24-.75-1.82-2.57-1.82h-5.32Zm0,6.53h5.63c1.41,0,2.83-.27,2.83-2.2,0-1.38-1-2.11-2.37-2.11h-6.09Z"/><path d="M168.1,13.58h3.72l6.66,14.94H175l-1.57-3.7h-7l-1.55,3.7h-3.39Zm4.37,8.9-2.55-6.3-2.6,6.3Z"/><polygon points="179.82 13.58 183.42 13.58 192.31 24.8 192.35 24.8 192.35 13.58 195.37 13.58 195.37 28.52 191.83 28.52 182.87 17.31 182.83 17.31 182.83 28.52 179.82 28.52 179.82 13.58"/><path d="M205.79,13.58H215c3.66,0,4.85,2.24,4.85,4.65a4.44,4.44,0,0,1-4.81,4.6h-6.11v5.7h-3.14Zm3.14,6.91h5c1.78,0,2.74-.48,2.74-2.26s-1.3-2.3-2.51-2.3h-5.27Z"/><path d="M226.23,13.58H230l6.65,14.94h-3.49l-1.57-3.7h-7L223,28.52h-3.39Zm4.38,8.9-2.56-6.3-2.59,6.3Z"/><path d="M238,13.58h9.46c3.81,0,5.05,1.74,5.05,4.06a3.52,3.52,0,0,1-2.47,3.6v0c1.78.38,2.17,1.93,2.17,4a6.32,6.32,0,0,0,.63,3.2H249.4a5,5,0,0,1-.37-2.26c0-2.13-.3-3.64-2.6-3.64h-5.34v5.9H238Zm8.56,6.7c1.74,0,2.68-.52,2.68-2.2s-1-2.15-2.68-2.15h-5.42v4.35Z"/><polygon points="255.01 13.58 258.15 13.58 258.15 20.51 265.79 13.58 270.1 13.58 263.13 19.65 270.54 28.52 266.29 28.52 260.68 21.64 258.15 23.88 258.15 28.52 255.01 28.52 255.01 13.58"/><path d="M195.5,38.81a5,5,0,0,1,1.2-3.4A4,4,0,0,1,199.87,34a4.16,4.16,0,0,1,2.65.84,3.17,3.17,0,0,1,1.21,2.28h-1.59a2.15,2.15,0,0,0-2.27-1.82,2.36,2.36,0,0,0-2.07,1,4.66,4.66,0,0,0,0,4.91,2.36,2.36,0,0,0,2.07,1,2,2,0,0,0,1.61-.67,3,3,0,0,0,.71-1.72h1.56a3.89,3.89,0,0,1-1.17,2.67,3.75,3.75,0,0,1-2.71,1,4,4,0,0,1-3.17-1.37,5,5,0,0,1-1.2-3.4"/><polygon points="205.16 43.36 205.16 34.25 206.76 34.25 206.76 37.87 210.91 37.87 210.91 34.25 212.5 34.25 212.5 43.36 210.91 43.36 210.91 39.25 206.76 39.25 206.76 43.36 205.16 43.36"/><path d="M213.36,43.36l3.5-9.11h1.69l3.51,9.11h-1.71L219.5,41h-3.64L215,43.36Zm2.93-3.62h2.79l-1.37-3.92h0Z"/><polygon points="222.87 43.36 222.87 34.25 224.55 34.25 228.71 40.96 228.74 40.96 228.74 34.25 230.26 34.25 230.26 43.36 228.57 43.36 224.42 36.66 224.39 36.66 224.39 43.36 222.87 43.36"/><path d="M232.15,43.36V34.25h3.77a3.62,3.62,0,0,1,3,1.27,5.14,5.14,0,0,1,1,3.29,5.11,5.11,0,0,1-1,3.28,3.62,3.62,0,0,1-3,1.27Zm1.59-1.3h1.57a4.27,4.27,0,0,0,1.53-.24,1.94,1.94,0,0,0,.93-.71,2.75,2.75,0,0,0,.45-1,6.42,6.42,0,0,0,0-2.57,2.75,2.75,0,0,0-.45-1,1.94,1.94,0,0,0-.93-.71,4.27,4.27,0,0,0-1.53-.24h-1.57Z"/><rect x="241.36" y="34.25" width="1.6" height="9.11"/><polygon points="246.91 43.36 243.88 34.25 245.53 34.25 247.82 41.46 247.84 41.46 250.18 34.25 251.8 34.25 248.69 43.36 246.91 43.36"/><path d="M251.06,43.36l3.5-9.11h1.7l3.51,9.11h-1.71L257.2,41h-3.64l-.85,2.41ZM254,39.74h2.78l-1.37-3.92h0Z"/><polygon points="260.63 43.36 260.63 34.25 262.23 34.25 262.23 41.98 266.86 41.98 266.86 43.36 260.63 43.36"/><rect x="267.96" y="34.25" width="1.6" height="9.11"/></svg>