<?xml version="1.0" standalone="no"?>
<!DOCTYPE svg PUBLIC "-//W3C//DTD SVG 20010904//EN"
 "http://www.w3.org/TR/2001/REC-SVG-20010904/DTD/svg10.dtd">
<svg version="1.0" xmlns="http://www.w3.org/2000/svg"
 width="312.000000pt" height="312.000000pt" viewBox="0 0 312.000000 312.000000"
 preserveAspectRatio="xMidYMid meet">
<metadata>
Created by potrace 1.11, written by Peter Selinger 2001-2013
</metadata>
<g transform="translate(0.000000,312.000000) scale(0.100000,-0.100000)"
fill="#000000" stroke="none">
<path d="M1370 3108 c-190 -21 -441 -107 -602 -206 -129 -78 -198 -132 -303
-237 -239 -237 -379 -504 -442 -840 -23 -124 -23 -406 0 -530 63 -339 203
-603 447 -845 260 -258 585 -408 955 -442 455 -41 901 120 1225 442 244 242
384 506 447 845 23 124 23 406 0 530 -47 253 -141 470 -290 671 -64 87 -233
255 -315 314 -336 242 -715 343 -1122 298z m1208 -925 c1 -112 -1 -203 -5
-203 -5 0 -199 0 -432 0 l-425 -1 -31 63 c-49 100 -111 184 -198 269 l-81 79
585 -2 584 -3 3 -202z m-1296 39 c43 -19 80 -38 83 -43 3 -5 -23 4 -58 20 -88
40 -152 51 -270 49 l-102 -1 130 -8 c72 -4 144 -11 162 -17 83 -27 171 -78
230 -136 35 -34 63 -59 63 -55 0 4 -33 38 -72 75 -40 37 -59 58 -42 46 60 -42
143 -142 178 -215 47 -101 56 -147 57 -299 1 -150 -12 -214 -64 -312 -40 -78
-155 -195 -227 -231 -126 -64 -148 -68 -382 -73 l-218 -4 0 -134 0 -133 -201
-3 c-110 -2 -203 -1 -205 1 -2 2 -4 159 -4 347 l0 343 373 3 c355 3 374 4 412
24 82 43 126 167 91 258 -21 54 -71 101 -123 115 -21 6 -109 11 -195 11 l-158
0 0 206 0 205 233 -3 232 -3 77 -33z m1196 -599 l-3 -208 -358 -3 -358 -2 8
52 c10 68 10 270 0 326 l-7 42 360 0 360 0 -2 -207z m102 -558 l0 -204 -592
-3 c-326 -2 -595 -2 -596 -1 -2 1 9 12 25 25 109 89 228 237 277 346 l19 42
434 0 433 0 0 -205z"/>
<path d="M2238 2373 c23 -2 61 -2 85 0 23 2 4 4 -43 4 -47 0 -66 -2 -42 -4z"/>
<path d="M1510 2305 c30 -34 57 -59 60 -58 2 2 -23 29 -55 61 l-59 57 54 -60z"/>
<path d="M503 1413 c37 -2 97 -2 135 0 37 2 6 3 -68 3 -74 0 -105 -1 -67 -3z"/>
</g>
</svg>
