<?xml version="1.0" encoding="utf-8"?>
<!-- Generator: Adobe Illustrator 16.0.0, SVG Export Plug-In . SVG Version: 6.00 Build 0)  -->
<!DOCTYPE svg PUBLIC "-//W3C//DTD SVG 1.1//EN" "http://www.w3.org/Graphics/SVG/1.1/DTD/svg11.dtd">
<svg version="1.1" id="FINAL" xmlns="http://www.w3.org/2000/svg" xmlns:xlink="http://www.w3.org/1999/xlink" x="0px" y="0px"
	 width="974.951px" height="179.991px" viewBox="0 0 974.951 179.991" enable-background="new 0 0 974.951 179.991"
	 xml:space="preserve">
<g>
	<g>
		<g>
			<path d="M572.067,129.259V126.5c3.765,0,5.658-0.913,5.658-2.763V54.219c0-1.826-1.895-2.743-5.658-2.743v-2.747h53.905
				c9.791,0,17.505,1.809,23.104,5.429c5.615,3.619,8.428,9.772,8.428,18.449c0,8.68-2.813,14.823-8.428,18.453
				c-5.6,3.626-13.313,5.435-23.104,5.435h-30.798v27.243c0,1.851,1.632,2.763,4.905,2.763v2.759L572.067,129.259L572.067,129.259z
				 M627.809,82.399c3.357,0,6.244-0.645,8.655-1.983c2.386-1.321,3.591-3.94,3.591-7.81s-1.205-6.482-3.591-7.816
				c-2.411-1.307-5.298-1.983-8.655-1.983h-32.633V82.4L627.809,82.399L627.809,82.399z"/>
			<path d="M805.052,48.728c4.906,0,9.33,0.43,13.318,1.278c3.968,0.884,7.396,2.263,10.247,4.149
				c2.862,1.878,5.055,4.331,6.582,7.352c1.538,3.006,2.315,6.701,2.315,11.099c0,6.732-2.009,11.892-5.99,15.468
				c-3.975,3.576-9.341,5.973-16.071,7.188l20.36,29.105c0.721,1.013,1.567,1.619,2.521,1.827c0.992,0.206,1.885,0.306,2.684,0.306
				v2.759h-28.613V126.5c0.917,0,1.695-0.148,2.359-0.464c0.681-0.285,0.992-0.712,0.992-1.2c0-0.527-0.208-1.112-0.615-1.754
				c-0.392-0.693-1.017-1.563-1.819-2.702l-16.854-23.886h-21.897v27.243c0,0.925,0.326,1.617,1.007,2.078
				c0.648,0.474,1.851,0.685,3.596,0.685v2.759h-26.506V126.5c2.961,0,4.449-0.913,4.449-2.763V54.219
				c0-1.826-1.488-2.743-4.449-2.743v-2.747L805.052,48.728L805.052,48.728z M801.074,84.555c3.66,0,6.721-0.285,9.181-0.852
				c2.432-0.558,4.365-1.349,5.804-2.36c1.443-1.032,2.466-2.229,3.065-3.602c0.62-1.371,0.912-2.886,0.912-4.525
				c0-1.628-0.292-3.145-0.912-4.513c-0.601-1.382-1.622-2.58-3.065-3.593c-1.438-1.022-3.372-1.813-5.804-2.387
				c-2.46-0.551-5.521-0.836-9.181-0.836h-26.507v22.666L801.074,84.555L801.074,84.555z"/>
			<path d="M875.099,123.737c0,0.925,0.309,1.617,0.917,2.078c0.592,0.474,1.306,0.685,2.139,0.685v2.759h-23.877V126.5
				c2.217,0,3.361-0.913,3.361-2.763V54.219c0-1.826-1.146-2.743-3.361-2.743v-2.747h23.877v2.747c-0.833,0-1.547,0.228-2.139,0.688
				c-0.608,0.461-0.917,1.141-0.917,2.055v29.099l31.676-24.957c1.442-1.216,2.589-2.207,3.378-2.987
				c0.833-0.756,1.229-1.391,1.229-1.904c0-0.726-0.219-1.232-0.685-1.531c-0.457-0.299-0.982-0.461-1.617-0.461V48.73h32.146v2.747
				c-1.814,0-3.646,0.76-5.485,2.303l-35.218,28.018l32.138,37.215c1.329,1.538,2.896,3.027,4.683,4.517
				c1.78,1.466,3.526,2.46,5.282,2.974v2.759h-28.337v-2.759c1.339,0,1.994-0.354,1.994-1.062c0-0.528-0.71-1.637-2.148-3.37
				L887.96,91.893l-12.861,9.967V123.737z"/>
			<path d="M698.354,69.557l13.379,28.473h-26.834l13.396-28.473 M684.21,48.728v2.765c0.704,0.198,1.423,0.479,2.138,0.839
				c0.72,0.363,1.076,1.097,1.076,2.222c0,0.811-0.164,1.628-0.531,2.443c-0.355,0.813-0.893,1.888-1.61,3.222l-29.279,62.318
				c-0.521,1.137-1.201,1.944-2.079,2.45c-0.873,0.511-1.854,1.024-2.979,1.537v2.748h24.374v-2.748
				c-0.407,0-0.923-0.163-1.523-0.479c-0.614-0.284-0.922-0.751-0.922-1.354c0-1.019,0.411-2.343,1.22-3.987l5.411-11.331h37.638
				l5.401,11.331c0.818,1.646,1.23,2.97,1.23,3.987c0,0.604-0.304,1.069-0.924,1.354c-0.604,0.315-1.11,0.479-1.521,0.479v2.748
				h24.354v-2.748c-1.101-0.513-2.098-1.026-2.961-1.537c-0.873-0.506-1.571-1.313-2.083-2.45l-29.27-62.318
				c-0.71-1.334-1.25-2.409-1.612-3.222c-0.356-0.815-0.524-1.634-0.524-2.443c0-1.125,0.352-1.857,1.075-2.222
				c0.704-0.36,1.43-0.641,2.118-0.839v-2.765H684.21z"/>
		</g>
	</g>
	<g>
		<g>
			<path d="M477.286,69.557l13.381,28.473h-26.838l13.395-28.473 M463.137,48.728v2.765c0.705,0.198,1.424,0.479,2.142,0.839
				c0.717,0.363,1.075,1.097,1.075,2.222c0,0.811-0.165,1.628-0.529,2.443c-0.36,0.813-0.895,1.888-1.615,3.222l-29.276,62.318
				c-0.521,1.137-1.199,1.944-2.081,2.45c-0.872,0.511-1.854,1.024-2.979,1.537v2.748h24.371v-2.748
				c-0.406,0-0.922-0.163-1.522-0.479c-0.614-0.284-0.92-0.751-0.92-1.354c0-1.019,0.409-2.343,1.218-3.987l5.411-11.331h37.645
				l5.4,11.331c0.819,1.646,1.23,2.97,1.23,3.987c0,0.604-0.303,1.069-0.923,1.354c-0.604,0.315-1.11,0.479-1.522,0.479v2.748
				h24.354v-2.748c-1.103-0.513-2.1-1.026-2.962-1.537c-0.873-0.506-1.572-1.313-2.083-2.45L490.3,60.219
				c-0.709-1.334-1.25-2.409-1.614-3.222c-0.356-0.815-0.525-1.634-0.525-2.443c0-1.125,0.353-1.857,1.079-2.222
				c0.704-0.36,1.429-0.641,2.118-0.839v-2.765H463.137z"/>
		</g>
	</g>
	<g>
		<path d="M102.5,132.184c0-1.53-0.485-2.398-1.455-2.604c-0.97-0.203-2.22-0.305-3.753-0.305H32.326v-2.756
			c3.063,0,4.594-0.92,4.594-2.758V54.239c0-1.838-1.53-2.758-4.594-2.758v-2.756h26.338v2.756c-2.859,0-4.287,0.92-4.287,2.758
			v60.946h42.915c1.533,0,2.783-0.354,3.753-1.071c0.97-0.712,1.455-1.684,1.455-2.909h2.756v20.979H102.5z"/>
		<path d="M160.538,47.806c5.612,0,11.332,0.843,17.149,2.526c5.821,1.688,11.128,4.211,15.927,7.581
			c4.797,3.368,8.73,7.635,11.793,12.787C208.47,75.857,210,81.956,210,88.999c0,7.046-1.53,13.146-4.593,18.302
			c-3.063,5.154-6.996,9.419-11.793,12.787c-4.799,3.369-10.105,5.819-15.927,7.351c-5.817,1.532-11.537,2.296-17.149,2.296
			c-5.617,0-11.333-0.764-17.151-2.296c-5.818-1.53-11.128-3.98-15.927-7.351c-4.799-3.368-8.728-7.633-11.79-12.787
			c-3.063-5.154-4.596-11.256-4.596-18.302c0-7.043,1.532-13.142,4.596-18.298c3.063-5.152,6.991-9.419,11.79-12.787
			c4.799-3.37,10.108-5.895,15.927-7.581C149.205,48.648,154.921,47.806,160.538,47.806z M160.538,61.894
			c-3.881,0-7.76,0.612-11.639,1.838c-3.881,1.226-7.378,2.986-10.49,5.282c-3.115,2.299-5.643,5.132-7.579,8.499
			c-1.942,3.371-2.909,7.2-2.909,11.484c0,4.288,0.967,8.117,2.909,11.487c1.937,3.368,4.464,6.2,7.579,8.497
			c3.112,2.299,6.609,4.06,10.49,5.285c3.879,1.225,7.758,1.838,11.639,1.838c3.879,0,7.758-0.613,11.637-1.838
			c3.879-1.227,7.376-2.986,10.49-5.285c3.112-2.297,5.64-5.129,7.582-8.497c1.937-3.37,2.909-7.199,2.909-11.487
			c0-4.284-0.973-8.113-2.909-11.484c-1.942-3.367-4.47-6.2-7.582-8.499c-3.114-2.296-6.611-4.058-10.49-5.282
			C168.296,62.508,164.417,61.894,160.538,61.894z"/>
		<path d="M274.164,48.725c5.615,0,10.848,0.817,15.696,2.45c4.849,1.635,9.06,4.108,12.636,7.428
			c3.571,3.318,6.379,7.502,8.422,12.557c2.041,5.056,3.063,11.002,3.063,17.839c0,6.844-1.022,12.787-3.063,17.843
			c-2.043,5.054-4.851,9.239-8.422,12.557c-3.576,3.317-7.787,5.795-12.636,7.428c-4.849,1.634-10.081,2.45-15.696,2.45h-50.841
			v-2.756c2.349,0,3.521-0.92,3.521-2.758V54.239c0-1.838-1.173-2.758-3.521-2.758v-2.756H274.164z M268.038,116.106
			c4.799,0,8.983-0.407,12.56-1.226c3.571-0.816,6.532-2.271,8.881-4.365c2.349-2.091,4.109-4.873,5.282-8.346
			c1.173-3.47,1.761-7.861,1.761-13.172c0-5.305-0.588-9.696-1.761-13.169c-1.173-3.47-2.934-6.252-5.282-8.346
			c-2.349-2.09-5.31-3.546-8.881-4.364c-3.576-0.815-7.761-1.226-12.56-1.226h-23.733v54.212L268.038,116.106L268.038,116.106z"/>
		<path d="M399.779,54.239c0-1.838-1.123-2.758-3.368-2.758v-2.756h23.583v2.756c-0.717,0-1.354,0.229-1.914,0.688
			c-0.563,0.462-0.844,1.147-0.844,2.068v69.522c0,0.92,0.279,1.606,0.844,2.067c0.56,0.459,1.197,0.689,1.914,0.689v2.756h-23.583
			v-2.756c2.245,0,3.368-0.92,3.368-2.758V94.974h-49.312v28.788c0,0.92,0.28,1.606,0.843,2.067
			c0.562,0.459,1.198,0.689,1.915,0.689v2.756h-23.124v-2.756c1.938,0,2.909-0.92,2.909-2.758V54.239
			c0-1.838-0.973-2.758-2.909-2.758v-2.756h23.124v2.756c-0.717,0-1.354,0.229-1.915,0.688c-0.563,0.462-0.843,1.147-0.843,2.068
			V80.27h49.312V54.239z"/>
	</g>
</g>
</svg>
